<?xml version="1.0" encoding="utf-8"?>
<!-- Generator: Adobe Illustrator 16.0.0, SVG Export Plug-In . SVG Version: 6.00 Build 0)  -->
<!DOCTYPE svg PUBLIC "-//W3C//DTD SVG 1.1//EN" "http://www.w3.org/Graphics/SVG/1.1/DTD/svg11.dtd">
<svg version="1.1" id="Layer_1" xmlns="http://www.w3.org/2000/svg" xmlns:xlink="http://www.w3.org/1999/xlink" x="0px" y="0px"
	 width="64px" height="64px" viewBox="0 0 64 64" enable-background="new 0 0 64 64" xml:space="preserve">
<path fill="#212121" d="M54.656,26.496c0-2.624-2.112-4.8-4.801-4.8c-0.191,0-0.447,0-0.64,0.064
	c0.063-0.192,0.063-0.448,0.063-0.64c0-2.624-2.176-4.8-4.799-4.8c-0.192,0-0.448,0-0.641,0.064c0.064-0.192,0.064-0.448,0.064-0.64
	c0-2.624-2.176-4.8-4.801-4.8c-0.191,0-0.447,0-0.64,0.064c0-0.192,0.063-0.448,0.063-0.64c0-2.624-2.111-4.8-4.799-4.8
	c-1.345,0-2.561,0.512-3.393,1.408l-2.944-3.008c-0.64-0.512-1.28-0.768-1.92-0.768c-0.64,0-1.28,0.256-1.792,0.768L10.112,17.536
	c-1.024,1.024-1.024,2.624,0,3.648l8.192,8.192c-1.664,0.832-2.816,2.56-2.816,4.608c0,1.92,1.088,3.647,2.688,4.479l9.664,9.664
	v2.177h-0.832c-1.408,0-2.56,1.151-2.56,2.56v5.376c0,1.408,1.152,2.56,2.56,2.56h17.984c1.408,0,2.56-1.151,2.56-2.56V52.8
	c0-1.407-1.151-2.56-2.56-2.56h-0.896v-0.961c3.456-0.703,6.145-4.415,6.145-8.831c0-1.28-0.256-2.56-0.641-3.648l3.457-3.456
	c0.959-0.896,0.959-2.368,0.191-3.392C54.08,29.056,54.656,27.84,54.656,26.496z M44.48,18.88c1.215,0,2.24,1.024,2.24,2.24
	c0,0.64-0.257,1.216-0.705,1.6l-3.136-3.2C43.264,19.136,43.84,18.88,44.48,18.88z M39.04,13.44c1.216,0,2.239,1.024,2.239,2.24
	c0,0.64-0.256,1.216-0.703,1.6l-3.137-3.136C37.889,13.76,38.464,13.44,39.04,13.44z M33.664,8.064c1.216,0,2.24,1.024,2.24,2.24
	c0,0.64-0.256,1.216-0.641,1.6l-3.136-3.136C32.448,8.32,33.023,8.064,33.664,8.064z M16.768,22.336l-3.008-3.008L25.536,7.616
	l3.008,3.008L16.768,22.336z M17.984,33.855c0-1.407,1.152-2.56,2.56-2.56h10.24c1.408,0,2.56,1.152,2.56,2.56
	c0,1.408-1.152,2.561-2.56,2.561h-10.24C19.136,36.416,17.984,35.264,17.984,33.855z M44.928,52.8v5.44h-17.92V52.8H44.928z
	 M42.88,46.848L42.88,46.848c-0.063,0-0.128,0-0.128,0c-0.704,0-1.279,0.576-1.279,1.28v2.112H30.4v-2.688
	c0-0.448-0.192-0.831-0.512-1.024c-0.064-0.063-0.064-0.127-0.128-0.127l-7.424-7.424h5.632l7.872,7.871
	c0.512,0.512,1.152,0.769,1.792,0.769s1.28-0.257,1.792-0.769l3.456-3.455l4.608-4.608c0.128,0.512,0.128,1.024,0.128,1.6
	C47.68,43.968,45.504,46.848,42.88,46.848z M37.632,43.264l-4.735-4.736c1.791-0.832,3.008-2.623,3.008-4.672
	c0-2.815-2.305-5.12-5.12-5.12h-7.68l-4.544-4.544l11.776-11.776l19.072,19.072L37.632,43.264z M51.393,28.096l-3.137-3.136
	c0.385-0.448,0.96-0.64,1.6-0.64c1.217,0,2.24,1.024,2.24,2.24C52.096,27.136,51.84,27.712,51.393,28.096z M23.168,12.992
	c0.512,0.512,0.512,1.28,0,1.792l-2.112,2.112C20.8,17.152,20.48,17.28,20.16,17.28c-0.32,0-0.64-0.128-0.896-0.384
	c-0.512-0.512-0.512-1.28,0-1.792l2.112-2.112C21.824,12.48,22.656,12.48,23.168,12.992z M40.256,35.52
	c0-0.64,0.512-1.215,1.217-1.215c0.639,0,1.215,0.512,1.215,1.215c0,0.641-0.512,1.217-1.215,1.217
	C40.832,36.672,40.256,36.16,40.256,35.52z M41.344,56.576C41.088,56.32,40.96,56,40.96,55.68c0-0.063,0-0.191,0-0.256
	s0.063-0.191,0.063-0.256s0.064-0.128,0.129-0.191c0.063-0.064,0.063-0.129,0.127-0.192c0.32-0.32,0.705-0.448,1.152-0.32
	c0.064,0,0.129,0.063,0.256,0.063c0.064,0.064,0.129,0.064,0.192,0.129s0.128,0.128,0.192,0.128
	c0.064,0.063,0.128,0.128,0.128,0.192c0.063,0.063,0.063,0.127,0.128,0.191s0.064,0.128,0.064,0.256c0,0.064,0,0.192,0,0.256
	c0,0.32-0.129,0.641-0.385,0.896c-0.128,0.256-0.447,0.384-0.768,0.384S41.536,56.832,41.344,56.576z"/>
</svg>
