<?xml version="1.0" encoding="utf-8"?>
<!-- Generator: Adobe Illustrator 16.0.0, SVG Export Plug-In . SVG Version: 6.00 Build 0)  -->
<!DOCTYPE svg PUBLIC "-//W3C//DTD SVG 1.1//EN" "http://www.w3.org/Graphics/SVG/1.1/DTD/svg11.dtd">
<svg version="1.1" id="Layer_1" xmlns="http://www.w3.org/2000/svg" xmlns:xlink="http://www.w3.org/1999/xlink" x="0px" y="0px"
	 width="210px" height="62px" viewBox="0 0 210 62" enable-background="new 0 0 210 62" xml:space="preserve">
<g>
	<path fill="#254A5F" d="M43.09,1.916L25.891,31.235h17.373h0.225L26.289,60.555c2.67,0.763,5.486,1.181,8.4,1.181
		c16.846,0,30.5-13.655,30.5-30.5C65.189,17.306,55.848,5.565,43.09,1.916z"/>
	<path fill="#F36F21" d="M43.264,31.235H25.891L43.09,1.916c-2.67-0.763-5.484-1.181-8.4-1.181c-16.844,0-30.5,13.656-30.5,30.5
		c0,13.93,9.342,25.67,22.1,29.319l17.199-29.319H43.264z"/>
</g>
<g>
	<path fill="#FF6309" d="M74.532,31.235c0,13.712,9.049,25.309,21.5,29.148V2.087C83.581,5.927,74.532,17.523,74.532,31.235z"/>
	<path fill="#999999" d="M105.032,0.735c-3.133,0-6.155,0.474-9,1.352v58.297c2.845,0.878,5.867,1.352,9,1.352s6.155-0.474,9-1.352
		V2.087C111.188,1.209,108.165,0.735,105.032,0.735z"/>
	<path fill="#E51937" d="M135.532,31.235c0-13.712-9.049-25.309-21.5-29.148v58.297C126.483,56.544,135.532,44.947,135.532,31.235z"
		/>
</g>
<g>
	<path fill="#00AED6" d="M167.75,38.86V1.696c-13.155,3.386-22.875,15.327-22.875,29.539c0,16.845,13.655,30.5,30.5,30.5
		c14.212,0,26.153-9.72,29.539-22.875H167.75z"/>
	<path fill="#F05741" d="M205.875,31.235c0-16.845-13.655-30.5-30.5-30.5v30.5H205.875z"/>
	<path fill="#FBBE28" d="M204.914,38.86c0.627-2.437,0.961-4.992,0.961-7.625h-30.5v-30.5c-2.633,0-5.188,0.333-7.625,0.961V38.86
		H204.914z"/>
</g>
</svg>
